# xmcd
#
# Track frame offsets:
#	150
#	24994
#	50976
#	77705
#	136167
#	186365
#	214962
#	241347
#	286049
#
# Disc length: 4612 seconds
#
# Revision: 0
# Processed by: cddbd v1.4PL0 Copyright (c) Steve Scherf et al.
# Submitted via: audiograbber 1.81.02
#
DISCID=7e120209
DTITLE=Allman Brothers - 2002-03-16 - Beacon Theatre NYC NY - Disc 1
DYEAR=1900
DGENRE=
TTITLE0=abb2002-03 - 16d1t01
TTITLE1=abb2002-03 - 16d1t02
TTITLE2=abb2002-03 - 16d1t03
TTITLE3=abb2002-03 - 16d1t04
TTITLE4=abb2002-03 - 16d1t05
TTITLE5=abb2002-03 - 16d1t06
TTITLE6=abb2002-03 - 16d1t07
TTITLE7=abb2002-03 - 16d1t08
TTITLE8=abb2002-03 - 16d1t09
EXTD=
EXTT0=
EXTT1=
EXTT2=
EXTT3=
EXTT4=
EXTT5=
EXTT6=
EXTT7=
EXTT8=
PLAYORDER=
